<svg xmlns="http://www.w3.org/2000/svg" enable-background="new 0 0 24 24" viewBox="0 0 24 24"><path fill="#ff9800" d="m17.373 14.358-.001-.001-.001.001z"/><path fill="#757575" d="m2 15.429v8.571h18.993v-8.571h-2.114v6.428h-14.766v-6.428z"/><path fill="#666" d="m4.113 15.429h-2.113v8.571h10v-2.143h-7.887z"/><path fill="#ff9800" d="m6.215 19.698h10.566v-2.127h-10.566z"/><path fill="#de8400" d="m16.781 18.635h-10.566v1.063h10.566z"/><path fill="#ff9800" d="m6.444 14.839 10.338 2.197.433-2.09-10.339-2.212z"/><path fill="#de8400" d="m6.673 13.723-.229 1.116 10.338 2.197.219-1.058z"/><path fill="#ff9800" d="m7.8 9.831 9.572 4.526.887-1.944-9.577-4.538z"/><path fill="#de8400" d="m8.281 8.765-.481 1.066 9.572 4.526.416-.911z"/><path fill="#ff9800" d="m10.453 5.063 8.109 6.873 1.346-1.65-8.109-6.873z"/><path fill="#de8400" d="m11.177 4.175-.724.888 8.109 6.873.668-.82z"/><path fill="#ff9800" d="m22 8.587-6.302-8.587-1.691 1.286 6.303 8.587z"/><path fill="#de8400" d="m14.841.651-.834.635 6.303 8.587.914-.695z"/></svg>